<?xml version="1.0" encoding="UTF-8"?>
<svg width="200px" height="40px" viewBox="0 0 200 40" version="1.1" xmlns="http://www.w3.org/2000/svg" xmlns:xlink="http://www.w3.org/1999/xlink">
    <title>Rice Stalk Divider</title>
    <g id="rice-stalk-divider" stroke="none" stroke-width="1" fill="none" fill-rule="evenodd">
        <g id="rice-stalks" transform="translate(40, 0)" fill="#8b5a00" fill-rule="nonzero">
            <!-- Left rice stalk -->
            <path d="M20,2 C18,2 16,4 16,8 C16,12 18,18 20,20 C22,18 24,12 24,8 C24,4 22,2 20,2 Z" id="leaf-1"></path>
            <path d="M20,8 C18,8 16,10 16,14 C16,18 18,24 20,26 C22,24 24,18 24,14 C24,10 22,8 20,8 Z" id="leaf-2"></path>
            <path d="M20,14 C18,14 16,16 16,20 C16,24 18,30 20,32 C22,30 24,24 24,20 C24,16 22,14 20,14 Z" id="leaf-3"></path>
            <path d="M20,20 C18,20 16,22 16,26 C16,30 18,36 20,38 C22,36 24,30 24,26 C24,22 22,20 20,20 Z" id="leaf-4"></path>
            <rect id="stem" x="19" y="2" width="2" height="36"></rect>
            
            <!-- Right rice stalk -->
            <path d="M100,2 C98,2 96,4 96,8 C96,12 98,18 100,20 C102,18 104,12 104,8 C104,4 102,2 100,2 Z" id="leaf-5"></path>
            <path d="M100,8 C98,8 96,10 96,14 C96,18 98,24 100,26 C102,24 104,18 104,14 C104,10 102,8 100,8 Z" id="leaf-6"></path>
            <path d="M100,14 C98,14 96,16 96,20 C96,24 98,30 100,32 C102,30 104,24 104,20 C104,16 102,14 100,14 Z" id="leaf-7"></path>
            <path d="M100,20 C98,20 96,22 96,26 C96,30 98,36 100,38 C102,36 104,30 104,26 C104,22 102,20 100,20 Z" id="leaf-8"></path>
            <rect id="stem-2" x="99" y="2" width="2" height="36"></rect>
            
            <!-- Center line -->
            <rect id="center-line" x="30" y="19" width="60" height="2" rx="1"></rect>
            
            <!-- Small decorative dots -->
            <circle id="dot-1" cx="35" cy="19" r="2"></circle>
            <circle id="dot-2" cx="85" cy="19" r="2"></circle>
        </g>
    </g>
</svg>
